<?xml version="1.0" encoding="UTF-8" standalone="no"?>
<!-- Created with Inkscape (http://www.inkscape.org/) -->

<svg
   xmlns:dc="http://purl.org/dc/elements/1.1/"
   xmlns:cc="http://creativecommons.org/ns#"
   xmlns:rdf="http://www.w3.org/1999/02/22-rdf-syntax-ns#"
   xmlns:svg="http://www.w3.org/2000/svg"
   xmlns="http://www.w3.org/2000/svg"
   xmlns:sodipodi="http://sodipodi.sourceforge.net/DTD/sodipodi-0.dtd"
   xmlns:inkscape="http://www.inkscape.org/namespaces/inkscape"
   width="1024"
   height="500"
   id="svg4111"
   version="1.1"
   inkscape:version="0.48.2 r9819"
   sodipodi:docname="feature.svg"
   inkscape:export-filename="/Users/xavier/Project/MyApplicationX/graphic/feature.png"
   inkscape:export-xdpi="90"
   inkscape:export-ydpi="90">
  <defs
     id="defs4113" />
  <sodipodi:namedview
     id="base"
     pagecolor="#ffffff"
     bordercolor="#666666"
     borderopacity="1.0"
     inkscape:pageopacity="0.0"
     inkscape:pageshadow="2"
     inkscape:zoom="0.94435318"
     inkscape:cx="543.58617"
     inkscape:cy="232.57335"
     inkscape:document-units="px"
     inkscape:current-layer="layer1"
     showgrid="false"
     inkscape:window-width="1440"
     inkscape:window-height="780"
     inkscape:window-x="0"
     inkscape:window-y="0"
     inkscape:window-maximized="1" />
  <metadata
     id="metadata4116">
    <rdf:RDF>
      <cc:Work
         rdf:about="">
        <dc:format>image/svg+xml</dc:format>
        <dc:type
           rdf:resource="http://purl.org/dc/dcmitype/StillImage" />
        <dc:title></dc:title>
      </cc:Work>
    </rdf:RDF>
  </metadata>
  <g
     inkscape:label="Layer 1"
     inkscape:groupmode="layer"
     id="layer1"
     transform="translate(0,-552.36218)">
    <rect
       style="fill:#eeeeec;fill-opacity:1;stroke:none"
       id="rect4119"
       width="1024"
       height="500"
       x="0"
       y="552.36218"
       rx="0"
       ry="0" />
    <g
       id="g4673"
       transform="matrix(1.2411972,0,0,1.2411972,-33.111014,-176.30896)">
      <rect
         ry="21.788494"
         rx="21.788494"
         y="696.01422"
         x="532.56616"
         height="243.67816"
         width="247.31546"
         id="rect4026"
         style="fill:#5c3566;fill-opacity:1;stroke:#000000;stroke-width:0.3245101;stroke-linecap:round;stroke-linejoin:round;stroke-miterlimit:4;stroke-opacity:1;stroke-dasharray:none;stroke-dashoffset:0" />
      <g
         id="g4668">
        <path
           sodipodi:type="arc"
           style="fill:none;stroke:#d4d4d4;stroke-width:6.5735383;stroke-miterlimit:4;stroke-opacity:1;stroke-dasharray:none"
           id="path4028"
           sodipodi:cx="226.41586"
           sodipodi:cy="230.46976"
           sodipodi:rx="68.520592"
           sodipodi:ry="68.520592"
           d="m 294.93645,230.46976 c 0,37.84287 -30.67771,68.52059 -68.52059,68.52059 -37.84287,0 -68.52059,-30.67772 -68.52059,-68.52059 0,-37.84288 30.67772,-68.52059 68.52059,-68.52059 37.84288,0 68.52059,30.67771 68.52059,68.52059 z"
           transform="matrix(0.37069412,0,0,0.37069412,574.96869,733.41975)" />
        <path
           sodipodi:type="arc"
           style="fill:none;stroke:#d4d4d4;stroke-width:4.84240294;stroke-miterlimit:4;stroke-opacity:1;stroke-dasharray:none"
           id="path4028-6"
           sodipodi:cx="226.41586"
           sodipodi:cy="230.46976"
           sodipodi:rx="68.520592"
           sodipodi:ry="68.520592"
           d="m 294.93645,230.46976 c 0,37.84287 -30.67771,68.52059 -68.52059,68.52059 -37.84287,0 -68.52059,-30.67772 -68.52059,-68.52059 0,-37.84288 30.67772,-68.52059 68.52059,-68.52059 37.84288,0 68.52059,30.67771 68.52059,68.52059 z"
           transform="matrix(0.59906601,0,0,0.59906601,523.26167,680.78694)" />
        <path
           sodipodi:type="arc"
           style="fill:none;stroke:#d4d4d4;stroke-width:4.16403437;stroke-miterlimit:4;stroke-opacity:1;stroke-dasharray:none"
           id="path4028-6-2"
           sodipodi:cx="226.41586"
           sodipodi:cy="230.46976"
           sodipodi:rx="68.520592"
           sodipodi:ry="68.520592"
           d="m 294.93645,230.46976 c 0,37.84287 -30.67771,68.52059 -68.52059,68.52059 -37.84287,0 -68.52059,-30.67772 -68.52059,-68.52059 0,-37.84288 30.67772,-68.52059 68.52059,-68.52059 37.84288,0 68.52059,30.67771 68.52059,68.52059 z"
           transform="matrix(0.8359928,0,0,0.8359928,469.61768,626.18246)" />
      </g>
      <g
         style="fill:#729fcf"
         transform="matrix(0.96956927,0,0,0.96956927,226.74618,-131.85368)"
         id="g3244">
        <path
           inkscape:connector-curvature="0"
           id="path3248"
           d="m 521.54042,1140.0081 c -3.025,-1.9002 -6.6901,-3.465 -8.14466,-3.4774 -4.88051,-0.042 -15.60316,-4.0064 -21.50527,-7.9515 -3.21754,-2.1508 -11.86285,-9.1519 -19.2118,-15.5583 -7.34896,-6.4063 -17.14618,-14.1402 -21.77162,-17.1864 -4.62544,-3.0463 -8.85016,-6.3614 -9.38827,-7.3668 -1.91752,-3.583 -1.13182,-8.0139 1.92785,-10.872 6.64886,-6.211 20.02582,-6.9066 32.84377,-1.708 4.5375,1.8403 8.25,3.2529 8.25,3.139 0,-0.1138 -11.52692,-20.5838 -25.61538,-45.4887 -23.99833,-42.42316 -25.61539,-45.59618 -25.61539,-50.26281 0,-13.4735 16.89725,-19.7847 25.82568,-9.64601 1.1522,1.30838 6.4954,10.19936 11.87378,19.75773 l 9.77888,17.37889 2.35802,-3.013 c 2.62514,-3.3543 8.84905,-6.2447 13.44677,-6.2447 3.87782,0 8.94132,2.1555 11.30962,4.8144 l 1.86197,2.0905 3.14971,-3.3397 c 2.97941,-3.159 8.70351,-5.57394 13.12634,-5.5377 2.84379,0.0233 9.67788,3.3275 11.78385,5.6974 1.77194,1.9939 1.80634,1.9849 5.15,-1.3588 2.91521,-2.9152 4.02955,-3.3661 8.31827,-3.3661 9.14461,0 13.91082,5.3555 28.03339,31.5 14.66245,27.1438 20.99601,44.4898 21.92539,60.0481 0.50821,8.5076 0.3986,9.205 -1.8352,11.6758 -2.93347,3.2446 -67.60933,39.7744 -70.3757,39.7492 -1.1,-0.01 -4.475,-1.573 -7.5,-3.4731 z"
           style="fill:#729fcf" />
      </g>
    </g>
    <text
       xml:space="preserve"
       style="font-size:182.24830627px;font-style:normal;font-variant:normal;font-weight:normal;font-stretch:normal;line-height:125%;letter-spacing:0px;word-spacing:0px;fill:#5c3566;fill-opacity:1;stroke:none;font-family:Serto Jerusalem Outline;-inkscape-font-specification:Serto Jerusalem Outline"
       x="-241.93134"
       y="789.29388"
       id="text4682"
       sodipodi:linespacing="125%"
       transform="matrix(0.91116973,-0.41203122,0.41203122,0.91116973,0,0)"><tspan
         sodipodi:role="line"
         id="tspan4684"
         x="-241.93134"
         y="789.29388"
         style="font-style:italic;font-variant:normal;font-weight:bold;font-stretch:normal;fill:#5c3566;font-family:Sans;-inkscape-font-specification:'micro.pcf Bold Italic'">Tap</tspan></text>
    <text
       xml:space="preserve"
       style="font-size:144.51005554px;font-style:normal;font-variant:normal;font-weight:normal;font-stretch:normal;line-height:125%;letter-spacing:0px;word-spacing:0px;fill:#75507b;fill-opacity:1;stroke:none;font-family:Serto Jerusalem Outline;-inkscape-font-specification:Serto Jerusalem Outline"
       x="-141.15601"
       y="941.88373"
       id="text4682-2"
       sodipodi:linespacing="125%"
       transform="matrix(0.91116973,-0.41203122,0.41203122,0.91116973,0,0)"><tspan
         sodipodi:role="line"
         id="tspan4684-4"
         x="-141.15601"
         y="941.88373"
         style="font-style:italic;font-variant:normal;font-weight:bold;font-stretch:normal;fill:#75507b;font-family:Sans;-inkscape-font-specification:'micro.pcf Bold Italic'">Tap</tspan></text>
    <text
       xml:space="preserve"
       style="font-size:108.37932587000000240px;font-style:normal;font-variant:normal;font-weight:normal;font-stretch:normal;line-height:125%;letter-spacing:0px;word-spacing:0px;fill:#ad7fa8;fill-opacity:1;stroke:none;font-family:Serto Jerusalem Outline;-inkscape-font-specification:Serto Jerusalem Outline"
       x="-56.665394"
       y="1058.3209"
       id="text4682-4"
       sodipodi:linespacing="125%"
       transform="matrix(0.91116973,-0.41203122,0.41203122,0.91116973,0,0)"><tspan
         sodipodi:role="line"
         id="tspan4684-3"
         x="-56.665394"
         y="1058.3209"
         style="font-style:italic;font-variant:normal;font-weight:bold;font-stretch:normal;fill:#ad7fa8;font-family:Sans;-inkscape-font-specification:'micro.pcf Bold Italic'">Tap</tspan></text>
  </g>
</svg>
